<svg viewBox="0 0 86 33" class="cloud" id="Cloud-Reflection">
  <defs>
  <clipPath>
   <path d="m40.933 119.35v16.156h12.686c-6e-3 -0.0464-0.0071-0.0936-0.0026-0.14108-0.01998-0.0478-0.04117-0.0963-0.06821-0.13901-0.29083-0.45886 0.06393-0.77903 0.38137-0.56069 0.09323-0.14664 0.2018-0.27543 0.31419-0.2806 8e-3 -2.6e-4 0.01617 2e-3 0.02429 3e-3 0.10165-0.16123 0.24189-0.23298 0.37104-0.231 0.02678 5.3e-4 0.05242 5e-3 0.07751 0.0109 5e-3 -0.0225 0.01-0.0451 0.01497-0.0677 0.06277-0.2825 0.22273-0.41345 0.37104-0.41755 0.02175-5.3e-4 0.04319 2e-3 0.06408 7e-3v-14.339zm14.233 15.502c-0.13163 0.13948-0.30542 0.14095-0.416 0.0274-0.04387 0.10618-0.06558 0.22139-0.1142 0.32557-0.01175 0.0251 0.01344-0.0537 0.02016-0.0806 0.04822-0.19361-0.0065-0.20231-0.09715-0.14986-0.02921 0.046-0.05822 0.0927-0.09198 0.13436-0.01707 0.0288-0.05141 0.0591-0.06666 0.0873-0.02856 0.0528-0.05794 0.10526-0.08733 0.15761 0.01058 0.05 0.01786 0.10071 0.02066 0.15193h0.83251zm-0.89297 0.57051c-0.01423 0.0213-0.02992 0.0417-0.03824 0.0656-0.0053 0.0153 0.03047-0.0169 0.03617-0.032 0.0029-8e-3 0.0016-0.0217 0.0021-0.0336z" fill="#f00"/>
  </clipPath>
 </defs>
 <g transform="translate(-37.949 -99.592)">
  <g fill="none" stroke="#000">
   <path d="m43.225 131.63c3.3814-1.2056 6.8543-1.9588 10.385-2.3843 16.169-1.9486 32.997 2.8323 48.214 2.9188 0 0 3.0398-1.7914 4.6772-1.6036 1.4612 0.16753 2.3648 1.8216 3.7418 2.3386 1.4017 0.52635 4.4347 0.71481 4.4347 0.71481" stroke-width=".26458px"/>
   <path transform="matrix(1.1223 0 0 1.0458 -4.4877 -5.4728)" d="m45.969 119.46c-1.2493 0.48439-2.3684 1.3-3.212 2.341s-1.4097 2.3048-1.6247 3.6273-0.07854 2.7006 0.39179 3.9552c0.47033 1.2546 1.2734 2.3828 2.3048 3.2381 1.0562 0.87581 2.3311 1.4569 3.6446 1.8536 1.2534 0.37846 2.5493 0.59645 3.8458 0.77878 0.49629 0.0698 0.99596 0.13465 1.4969 0.11882 0.50093-0.0158 1.007-0.11588 1.4458-0.35814 0.31688-0.17498 0.59347-0.4224 0.80254-0.71789" clip-path="url(#clipPath1005)" stroke-width=".25047px"/>
   <g stroke-width=".26458px">
    <path d="m46.831 109.8h2.6458"/>
    <path d="m49.477 109.8c3.1035 3.8865 3.4077 7.2374 7.9375 7.1438 4.5298-0.0936 4.4121-1.079 7.6729-3.7042"/>
    <path  d="m46.5 119.47c-1.1098-1.3004-1.7161-3.0198-1.6672-4.7287 0.04883-1.7089 0.75226-3.3909 1.9345-4.6258 0.17427-0.18202 0.35826-0.35447 0.53454-0.53454 0.44119-0.45069 0.83665-0.95153 1.3363-1.3363 0.69931-0.53853 1.5594-0.81746 2.4054-1.0691 2.0831-0.61955 4.2672-1.137 6.4145-0.80181 1.4654 0.22876 2.8589 0.85497 4.0433 1.7476 1.1844 0.89269 2.1622 2.0471 2.9057 3.3305 0.85318 1.4728 1.4025 3.1207 1.6036 4.8108"/>
    <path d="m66.01 116.26c-0.15397-1.8893 0.1862-3.8167 0.97759-5.5391s2.0322-3.236 3.566-4.3498c0.90534-0.65746 1.9064-1.1751 2.94-1.6036 2.9913-1.2401 6.2938-1.7379 9.5124-1.3824s6.3451 1.5692 8.9292 3.5205c1.2663 0.95621 2.4138 2.1003 3.2072 3.4745 0.52409 0.90766 0.88773 1.9077 1.0691 2.94"/>
    <path d="m96.212 113.32c1.0985-0.10728 2.2236 0.0715 3.2347 0.51407 1.0111 0.44253 1.9059 1.1478 2.5723 2.0275 0.66648 0.87974 1.1032 1.932 1.2555 3.0252 0.15229 1.0931 0.0198 2.2247-0.38081 3.2531-0.14483 0.37177-0.32402 0.73015-0.53454 1.0691"/>
   </g>
  </g>
  <path d="m55.298 136.26h63.5-0.52917" stroke="#000" stroke-width=".26458px"/>
  <g fill="none" stroke-width=".26458px">
   <path d="m70.687 106.44c5.6127 1.0691 5.248 2.0391 5.248 2.0391s1.5096 2.8566 2.6458 3.9688c1.3367 1.3085 2.9086 2.5168 4.7625 3.175 1.8539 0.65819 4.5733 0.75832 6.0854 0.52916 1.5121-0.22915 2.8403-1.1594 2.8403-1.1594s-0.2116 0.70115-0.19443 1.424c0.01717 0.72281 0.18742 1.8945 0.52852 2.8524s1.0898 2.1499 1.5368 2.8063 1.0023 1.2027 1.0023 1.2027l7.2163-0.0668" stroke="#000"/>
   <path d="m102.36 123.21c2.2732-0.31194 4.6413 0.11035 6.6666 1.1888 2.0253 1.0784 3.6975 2.8076 4.7076 4.8678 0.0218 0.0445 0.0434 0.0892 0.0648 0.134 0.41086 0.85843 0.78201 1.7542 0.88018 2.7008 0.0467 0.45052 0.0307 0.90503 8e-3 1.3574-3e-3 0.0515-5e-3 0.103-8e-3 0.1545 2.4308-1.5587 5.5988-1.9058 8.3094-0.9103 1.5389 0.56515 2.9246 1.5414 3.9748 2.8002l0.56696 0.75596" stroke="#000"/>
   <path d="m118.27 136.26h2.0493l7.2111 1e-5" stroke="#030308"/>
   <path d="m55.319 118.2" stroke="#000"/>
   <path d="m60.13 118.4" stroke="#000"/>
  </g>
  <g>
   <rect x="43.392" y="131.76" width=".26458" height=".26458" fill="#6d66cd" stroke="#6d66cd" stroke-width=".094"/>
   <path transform="scale(.26458)" d="m230.13 484.36c-23.052 0.1015-46.322 2.8412-68.174 10.441-1.954 0.59723-2.9093 3.246-1.5409 4.8273 1.0897 2.8661 3.8521 4.656 6.1472 6.5191 9.0326 6.542 20.313 8.5697 31.118 10.079 3.0497 0.39998 6.1479 0.56894 9.2086 0.46413 2.5453 1.0559 5.4393 0.46245 8.1291 0.69054 51.28 0.24002 102.56 0.0891 153.84 0.12802 36.701-0.0437 73.403 0.0356 110.1-0.16304 2.5596-0.25472 3.5505-3.6028 1.7702-5.3506-7.1978-9.6567-19.296-15.391-31.332-14.87-6.5586 0.19329-13.045 2.1088-18.666 5.4915-5.2112-0.72097-10.631-0.8578-15.584-2.7868-5.0488-2.4943-8.503-8.0753-14.46-8.6573-5.7417-0.30524-11.155 2.2664-16.19 4.733-1.3698 0.80021-2.7292 1.6059-4.3801 1.2068-33.408-0.70249-66.597-6.371-99.879-9.8259-16.641-1.7911-33.367-2.9931-50.112-2.9265zm-67.737 16.43c-0.0305 4.4e-4 -0.13776-0.0333 0 0zm269.87 2.3799c0.0166 0.012-9e-3 -5e-3 0 0z" fill="#425ab0" stroke="#a68cf9" stroke-width=".089721"/>
   <g stroke-width=".023739">
    <path d="m70.597 105.77c-0.75673 0.13405-1.2542 0.81838-1.8076 1.2944-1.5794 1.57-2.6988 3.6008-3.1611 5.7808-0.5972-0.4333-1.2366 0.13089-1.6725 0.522-1.1429 0.90812-2.0761 2.0822-3.5046 2.5632-1.5082 0.41184-3.1155 0.4485-4.6576 0.22764-1.552-0.40673-2.5384-1.7945-3.3382-3.0844-0.80493-1.2305-1.5522-2.5158-2.4864-3.6496-0.48669-0.42515-1.2063-0.18389-1.7996-0.2627-0.61276 0.01-1.3886-0.1746-1.7822 0.43932-2.1296 2.1477-2.7846 5.5974-1.5586 8.3667 0.21854 0.51472 0.50708 1.0068 0.82949 1.4565-2.4773 1.2844-4.321 3.8086-4.6471 6.5942-0.1068 1.3493-0.03878 2.742 0.51601 3.9973 0.29722 0.6347 0.49474 1.4326 1.1322 1.8149 0.53777 0.25763 0.974-0.25146 1.4773-0.34743 8.5329-2.8513 17.627-2.8852 26.469-2.1736 9.0713 0.75874 18.075 2.3326 27.177 2.8491 1.2912 0.0511 2.5903 0.15273 3.8781 0.13132 0.88163-0.26369 1.6677-0.80254 2.5436-1.1024 1.0523-0.41833 2.3548-0.7694 3.356-0.0364 1.081 0.72145 1.9951 1.7893 3.3247 2.0519 1.2138 0.28698 2.4658 0.48159 3.7108 0.50401 0.6677-0.0257 0.84401-0.7695 0.7432-1.3172-0.18957-2.2049-1.3333-4.2112-2.7099-5.8949-1.8888-2.1686-4.6166-3.6499-7.4917-3.9155-2.8602-0.0912-5.7227 0.05-8.5835 0.0676-0.38601-0.0423-0.85726 0.11055-1.1908-0.0519-1.493-1.7803-2.6979-3.9772-2.6249-6.365-9e-3 -0.54985 0.09919-1.3376-0.57057-1.5441-0.6316-0.18069-1.1471 0.38491-1.7307 0.5467-1.3427 0.49756-2.8104 0.35888-4.2124 0.31034-2.0976-0.0974-4.1091-0.94391-5.7287-2.2642-1.1546-0.87599-2.1597-1.946-2.8893-3.2029-0.50799-0.73381-0.86268-1.5595-1.3439-2.3062-0.73564-0.77485-1.8392-1.0206-2.8216-1.3383-0.81552-0.23814-1.7709-0.42421-2.5251-0.61366 0.07138 0.0176-0.25682-0.0734-0.31895-0.0476zm-24.781 13.408c0.0032-0.0327 0.04753-0.10117 0 0z" fill="#a18ef8" stroke="#a68cf9"/>
    <path d="m56.092 105.83c-2.177 0.0682-4.3093 0.64681-6.3489 1.3781-0.96558 0.3827-1.8432 1.0354-2.4505 1.8747-0.23354 0.63405 0.35744 1.2855 1.0079 1.1879 0.42832 0.0312 0.90552-0.0509 1.3054 0.0858 1.4654 1.7733 2.4005 3.9332 4.0152 5.5881 0.83919 0.89733 2.0377 1.4068 3.2648 1.412 1.1469 0.14417 2.3657-0.047 3.523-0.24353 1.767-0.33842 2.9874-1.7635 4.313-2.8506 0.39706-0.42928 1.1731-0.58284 1.1812-1.2774-0.07513-0.73502-0.56278-1.3556-0.90506-1.9911-1.894-3.0418-5.2296-5.2996-8.906-5.164z" fill="#e7e7e7" stroke="#fff"/>
    <path d="m80.533 102.6c-2.4048 0.0164-4.806 0.5246-7.0363 1.4164-0.84316 0.39618-1.7547 0.70234-2.5026 1.2668-0.51068 0.50257-0.15993 1.425 0.53483 1.5197 1.3068 0.41243 2.7446 0.57358 3.8956 1.3647 0.67972 0.82673 1.0786 1.8515 1.7041 2.7215 1.3116 2.0101 3.2361 3.601 5.4022 4.6168 2.2066 0.97906 4.6972 1.0346 7.0624 0.80468 0.8023-0.073 1.5061-0.4847 2.2411-0.76383 0.11023 1.2166 0.08501 2.4759 0.55141 3.6376 0.57348 1.5069 1.3955 2.9579 2.5253 4.1131 0.56042 0.41954 1.325 0.13763 1.9765 0.2001 1.9294-0.045 3.8641-0.0596 5.7894-0.15156 0.78686-0.10469 0.86635-1.0127 1.0922-1.6244 0.91077-3.0426-0.52566-6.5798-3.2885-8.1422-1.0959-0.67114-2.3754-0.97342-3.6538-0.96712-0.16837-0.34559-0.24946-0.83024-0.42794-1.2146-1.1735-3.0238-3.8158-5.2171-6.628-6.6766-2.6375-1.344-5.579-2.1546-8.5518-2.1174-0.22872-4e-3 -0.45748-4e-3 -0.68623-4e-3z" fill="#e7e7e7" stroke="#fff"/>
   </g>
  </g>
 </g>
 <g transform="translate(-37.949 -99.592)" stroke="#000">
  <path transform="matrix(.26458 0 0 .26458 40.428 102.59)" d="m77.824 95.926c-21.88-0.26957-43.833 2.8028-64.671 9.5257-1.7254 0.47487-3.2986 1.835-5.0823 0.84473-3.6357-0.56909-5.9841 3.8946-4.1392 6.8471 2.5823 5.6394 8.2403 9.018 13.452 11.921 10.701 5.1982 22.712 6.9945 34.473 7.8218 22.632 0.92445 45.292 0.44216 67.936 0.63048 65.862 0.0231 131.73 0.16347 197.59-0.13738 3.9901-0.31182 8.2639 0.50389 12.047-1.017 4.0635-2.2965 4.2546-8.3243 0.85379-11.295-7.254-8.7906-18.038-14.855-29.555-15.202-6.6963-0.49302-13.658 0.33758-19.72 3.2735-1.4493 0.97575-1.742 2.8892-1.6314 4.5332-5.0556-0.32555-10.275-0.87734-14.98-2.8362-5.0943-2.7031-9.1099-8.1134-15.274-8.2861-6.5492-0.10656-12.388 3.4745-18.217 5.8169-27.595-0.37242-54.863-4.4438-82.265-7.5407-22.246-2.6685-44.579-5.2424-67.024-4.906-1.2628-4.45e-4 -2.5256 0.0045-3.7884 0.0059z" stroke-width=".1285"/>
  <g stroke-width=".045894">
   <path transform="matrix(.26458 0 0 .26458 40.428 102.59)" d="m113.56 8.2295c-4.9429 0.72131-8.1564 5.1486-11.474 8.4521-4.5959 5.3299-8.3009 11.685-9.8291 18.594-0.56426 1.5595 0.65864 3.7122-1.1979 4.5403-4.7659 3.6789-8.9227 8.4529-14.562 10.808-5.9467 1.4401-12.344 2.1498-18.341 0.63407-5.9237-2.1015-9.0803-8.1098-12.577-12.908-2.9318-4.0621-5.2456-8.7226-8.9202-12.153-2.0358-1.5673-4.8403-0.40459-7.1665-1.061-0.27577-3.9198-5.4228-5.2034-8.1773-2.8634-4.9713 4.0141-7.8943 10.077-9.864 16.036-1.2867 5.9336-1.2776 12.289 0.38086 18.148 0.52721 2.0358 1.9417 4.2026 2.3256 5.9919-10.898 7.4075-17.712 20.955-15.734 34.178 0.62778 4.4594 1.6073 9.1873 4.4929 12.759 4.9276 2.3031 10.456-0.0538 15.127-1.458 18.908-5.5674 38.558-8.4057 58.413-8.0971 16.769-0.04445 33.532 0.33613 50.169 2.3359 30.042 3.0648 60.104 7.7129 90.334 9.4832 4.9867 0.0726 10.035 0.83289 14.984 0.31657 5.7605-2.0297 11.336-5.8533 17.676-5.4942 6.4126 1.4061 10.345 7.8274 16.864 9.0829 4.6493 1.0989 9.5945 2.325 14.34 1.2924 1.8639-0.90835 1.9486-2.9972 2.5377-4.6533 2.8932-1.311 3.401-4.9556 2.0646-7.599-4.7884-14.267-16.273-26.322-30.738-30.872-5.4574-1.7138-11.297-2.5559-16.984-2.1539-2.0419-0.1102-2.3375 2.6763-3.8963 2.9723-8.4751 0.42205-16.983 0.70169-25.466 0.53013-4.1466-4.5768-7.206-10.217-9.0353-16.104-0.97513-3.68-0.57833-7.6102-1.7174-11.233-1.4616-2.8643-4.9512-2.4794-7.3751-1.2493-5.593 2.5611-11.934 1.7478-17.892 1.6158-10.53-0.57664-20.03-6.6665-26.903-14.365-4.1099-4.5-6.4426-10.257-10.189-14.995-4.7007-4.0901-11.27-4.6061-16.865-6.762-0.37288-2.2508-2.5396-3.9111-4.8047-3.7486z"/>
   <path transform="matrix(.26458 0 0 .26458 40.428 102.59)" d="m58.831 8.2944c-9.3334 0.32554-18.574 2.7078-27.129 6.3871-2.8276 1.6982-6.601 3.3399-7.366 6.8795-0.26537 2.2054 1.4434 3.8695 2.3361 5.7087 1.8516 2.5624 5.2069 1.2247 7.6632 2.207 4.5014 4.5945 7.3723 10.516 11.325 15.57 3.393 4.8496 7.8815 9.7283 14.122 10.377 6.3141 0.71303 12.94 0.50029 18.973-1.6274 5.9696-3.0853 10.895-7.8086 15.915-12.179 1.9169-2.3715 0.91995-5.6426 2.0459-8.3294 0.50746-4.1819-3.0425-7.3113-5.4562-10.269-7.627-8.5287-18.472-14.544-30.082-14.706-0.78186-0.028163-1.5645-0.030198-2.3468-0.018301z"/>
   <path transform="matrix(.26458 0 0 .26458 40.428 102.59)" d="m152.09-3.8987c-12.89-0.06554-25.726 3.3773-37.036 9.5103-2.4526 1.4549-2.5631 4.9966-0.51269 6.8562 1.2918 3.8154 6.0619 3.9058 9.2376 5.2134 3.8886 1.0864 8.2881 2.301 10.359 6.1671 3.9196 6.4343 7.9513 12.995 13.96 17.725 7.1007 5.9784 15.997 10.192 25.404 10.326 6.5502 0.51642 13.367 0.38411 19.468-2.3325 0.93141-0.46867 1.5075 0.07699 1.3665 1.1377 0.54219 7.1894 2.4261 14.348 6.386 20.444 1.9579 2.6849 3.5378 6.0512 6.4616 7.7217 4.9493 0.62522 10.023-0.10762 15.021-0.05754 4.6769-0.36145 9.5345 0.15471 14.063-1.1532 1.2708-0.91001 1.9502-2.5812 3.7347-2.387 4.0591-0.99286 4.4859-5.7817 4.3222-9.2362 0.56859-11.917-6.4028-23.808-17.204-28.947-3.4067-1.7931-7.3079-2.8044-11.034-3.2103-2.8515-8.3083-8.3558-15.45-15.112-20.98-9.79-8.2496-21.998-13.379-34.479-15.89-4.759-0.74433-9.595-0.90541-14.405-0.90716zm-37.638 15.899c-0.0183-0.03841-0.0263-0.21252 0 0z"/>
   <path transform="matrix(.26458 0 0 .26458 40.428 102.59)" d="m151.83-7.6222c-13.068-0.14929-26.165 3.1984-37.624 9.4517-1.6056 0.78048-2.7832 2.1425-3.9962 3.3587-5.7328 2.5323-9.7579 7.6952-13.631 12.432-0.77643 1.0211-1.5189 2.0684-2.2174 3.1444-5.3508-5.8753-11.845-10.737-19.325-13.54-12.139-4.81-25.72-2.5144-37.803 1.2748-5.6514 2.0205-11.915 4.2374-15.522 9.2927-5.888 2.5719-9.2329 8.6452-11.9 14.177-4.1415 9.0932-3.9745 19.934-0.26507 29.136-9.3128 7.6956-15.651 19.5-15.117 31.761 0.11885 6.4149 1.4401 12.987 4.9798 18.419 0.9495 6.1304 6.0666 10.566 10.873 13.97 14.096 9.2415 31.455 11.178 47.908 11.676 78.781 0.32797 157.56 0.2086 236.34 0.13501 11.505-0.18145 23.051 0.23278 34.526-0.70281 5.3604-0.72563 8.1499-6.907 7.2182-11.846-0.8911-4.9699-5.304-8.2146-8.6772-11.569-10.382-9.3226-25.216-12.818-38.807-10.263-6.0169-17.017-21.047-30.968-39.023-34.137-2.0786 0.18909-1.799-1.4649-1.7046-3.0391 0.26594-9.8449-3.8302-19.76-11.31-26.239-4.7528-4.8741-11.344-7.5478-17.886-8.9027-6.4646-15.588-20.905-26.484-36.223-32.575-9.1178-3.6129-18.877-5.7567-28.721-5.4121-0.69847-0.0059-1.397-0.00132-2.0954-0.00224z"/>
   <path transform="matrix(.26458 0 0 .26458 40.428 102.59)" d="m151.3-11.235c-8.325-0.20984-16.663 0.88383-24.555 3.5921-6.8306 2.3287-13.817 4.9744-19.264 9.8552-5.3813 3.1034-9.6736 7.8401-13.58 12.623-9.9146-9.3911-23.587-15.287-37.383-13.994-11.17 0.92183-22.503 3.5393-32.171 9.391-3.1067 2.135-5.7025 4.9102-8.8344 7.0194-9.5309 8.8873-14.073 22.666-12.099 35.515 0.34338 2.4557 0.88772 4.8864 1.6783 7.2377-7.6666 7.2033-13.369 17.014-14.275 27.614-0.52791 7.7519 0.14846 15.771 3.7416 22.791 1.5909 2.8068 1.8546 6.1804 4.016 8.7161 7.5028 10.483 20.106 15.741 32.289 18.555 12.182 2.8525 24.747 3.1953 37.202 3.0241 84.779 0.11535 169.56 0.15672 254.34-0.16704 4.5248-0.29544 9.9182 0.22085 13.308-3.405 5.7543-5.2171 5.9358-14.945 0.68593-20.571-8.2188-10.328-20.664-17.155-33.853-18.189-3.7583-0.3498-7.5486-0.30455-11.305 0.05269-6.9391-16.367-21.672-29.517-39.185-33.326-0.35179-8.202-2.5762-16.475-7.6542-23.052-5.4985-7.4942-13.719-12.921-22.796-14.958-7.2089-15.76-22.157-26.623-37.895-32.911-8.6868-3.3471-17.898-5.8886-27.292-5.4134-1.7055-0.0024-3.411-0.0056-5.1165-2.55e-4z"/> 
        </g>
       </g>
</svg>